<svg width="16" height="16" viewBox="0 0 16 16" fill="none" xmlns="http://www.w3.org/2000/svg">
<path fill-rule="evenodd" clip-rule="evenodd" d="M1.33333 4.33398C1.33333 2.67713 2.67647 1.33398 4.33333 1.33398H11.6667C13.3235 1.33398 14.6667 2.67713 14.6667 4.33398V11.6673C14.6667 13.3242 13.3235 14.6673 11.6667 14.6673H4.33333C2.67647 14.6673 1.33333 13.3242 1.33333 11.6673V4.33398Z" stroke="#5E6062" stroke-linecap="round" stroke-linejoin="round"/>
<path fill-rule="evenodd" clip-rule="evenodd" d="M10.6667 7.58032C10.8354 8.7183 10.2554 9.83622 9.22775 10.3534C8.20015 10.8707 6.9567 10.6706 6.14323 9.8571C5.32975 9.04362 5.12967 7.80017 5.64689 6.77257C6.16411 5.74497 7.28202 5.16491 8.42 5.33365C9.58199 5.50596 10.4944 6.41834 10.6667 7.58032Z" stroke="#5E6062" stroke-linecap="round" stroke-linejoin="round"/>
</svg>
