<svg width="121" height="48" viewBox="0 0 121 48" fill="none" xmlns="http://www.w3.org/2000/svg">
<path d="M72.504 15.16H75.048V31.264H74.184L64.536 20.272V31H61.992V14.896H62.88L72.504 25.84V15.16ZM89.6865 31L88.5585 28.36H81.4305L80.3025 31H77.5905L84.5745 14.896H85.4385L92.4225 31H89.6865ZM87.6465 26.176L85.0065 19.624L82.3425 26.176H87.6465ZM94.9451 31V15.16H100.729C102.329 15.16 103.625 15.616 104.617 16.528C105.609 17.424 106.105 18.584 106.105 20.008C106.105 21.432 105.601 22.6 104.593 23.512C103.601 24.424 102.313 24.88 100.729 24.88H97.4891V31H94.9451ZM97.4891 22.624H100.681C101.561 22.624 102.249 22.392 102.745 21.928C103.241 21.464 103.489 20.832 103.489 20.032C103.489 19.232 103.241 18.6 102.745 18.136C102.249 17.656 101.561 17.416 100.681 17.416H97.4891V22.624ZM117.647 31L116.519 28.36H109.391L108.263 31H105.551L112.535 14.896H113.399L120.383 31H117.647ZM115.607 26.176L112.967 19.624L110.303 26.176H115.607Z" fill="black"/>
<circle cx="24" cy="24" r="24" fill="black"/>
</svg>
