<svg width="20" height="24" viewBox="0 0 20 24" fill="none" xmlns="http://www.w3.org/2000/svg">
<path d="M4.18976 0.888271C2.6186 1.37698 1.03696 1.86568 0.665124 1.97767L0 2.18639V6.67636C0 9.36423 0.0209488 11.3903 0.052372 11.7263C0.282809 14.0782 1.33025 16.3079 3.07947 18.1609C3.4775 18.5834 9.79356 23.9337 9.97162 23.9999C10.0449 24.0253 15.5964 19.4234 16.5076 18.5783C18.0893 17.1173 19.3253 14.9792 19.7652 12.9328C19.9956 11.8536 20.0113 11.4514 19.9956 6.66618L19.9799 2.16603L16.4238 1.07663C14.4704 0.481018 12.8626 -0.00259399 12.8521 0.00249672C12.8468 0.0126781 13.1401 0.577742 13.512 1.26498L14.1876 2.51219L15.1983 2.82782C15.7535 3.0009 16.5914 3.26052 17.0628 3.40306L17.9164 3.66268L17.8955 7.7963C17.8798 11.767 17.8745 11.9503 17.7698 12.4135C17.3718 14.1596 16.5495 15.641 15.2874 16.8933C15.0465 17.1326 13.821 18.1864 12.5693 19.2299C11.3176 20.2786 10.2282 21.1898 10.1497 21.2611L10.0135 21.3833L7.60964 19.3725C4.67158 16.9086 4.23165 16.4912 3.52987 15.4425C2.99044 14.6331 2.59241 13.7626 2.3515 12.8615C2.11583 11.9452 2.09488 11.6041 2.09488 7.52141V3.66777L2.8438 3.43869C3.2523 3.31143 4.09025 3.05181 4.703 2.86345C5.31052 2.6751 5.81329 2.50201 5.81329 2.48674C5.81329 2.47147 6.10657 1.9115 6.46794 1.24462C6.8293 0.572651 7.12259 0.0177689 7.12259 0.00758743C7.12259 -0.0229568 7.05974 -0.00259399 4.18976 0.888271Z" fill="#FF4C2F"/>
<path d="M9.84602 0.151016C9.79823 0.241016 8.46018 2.64603 6.87788 5.49105L4 10.6661L4.04248 11.0861C4.13805 11.9461 4.47788 12.8561 5.03009 13.6811C5.22655 13.9811 5.28496 14.0361 5.33805 13.9811C5.36991 13.9461 6.42124 12.0761 7.67434 9.82608C8.92212 7.58107 9.95752 5.74105 9.97876 5.74105C9.99469 5.74105 11.046 7.56107 12.3097 9.78108C13.5735 12.0011 14.6301 13.8561 14.6619 13.9061C14.715 13.9911 14.7257 13.9861 14.8106 13.8811C15.3575 13.2061 15.8088 12.0911 15.9363 11.1061L16 10.6061L12.9841 5.31105C11.3274 2.40103 9.96283 0.00601482 9.95221 0.00101471C9.9469 -0.00898552 9.89912 0.056015 9.84602 0.151016Z" fill="#FF4C2F"/>
<path d="M8.49592 12.7939L7 15.5878L7.84316 16.2748C8.30553 16.6514 8.98549 17.1959 9.34995 17.4809L10.019 18L10.1659 17.888C10.2529 17.827 10.922 17.2824 11.6564 16.6768L13 15.5776L11.5095 12.7888C10.6881 11.257 10.0136 10 10.0027 10C9.99728 10 9.31732 11.257 8.49592 12.7939Z" fill="#FF4C2F"/>
</svg>
