<svg width="24" height="24" viewBox="0 0 24 24" fill="none" xmlns="http://www.w3.org/2000/svg">
<path d="M12.0039 24.0278C18.6313 24.0278 24.0039 18.6552 24.0039 12.0278C24.0039 5.40042 18.6313 0.027832 12.0039 0.027832C5.37649 0.027832 0.00390625 5.40042 0.00390625 12.0278C0.00390625 18.6552 5.37649 24.0278 12.0039 24.0278Z" fill="#2B5EE2"/>
<path d="M16.1411 12.8106C15.7745 14.7532 14.07 16.2221 12.0211 16.2221C9.70449 16.2221 7.82697 14.3446 7.82697 12.028C7.82697 9.71132 9.70449 7.8338 12.0211 7.8338C14.07 7.8338 15.7745 9.30352 16.1411 11.2453H20.3732C19.9786 6.97948 16.3899 3.63965 12.0211 3.63965C7.38786 3.63965 3.63281 7.39552 3.63281 12.028C3.63281 16.6612 7.38868 20.4163 12.0211 20.4163C16.3899 20.4163 19.9786 17.0764 20.3732 12.8106H16.1411Z" fill="white"/>
</svg>
