<svg width="105" height="32" viewBox="0 0 105 32" fill="none" xmlns="http://www.w3.org/2000/svg">
<path d="M2.89274 28.9678C2.85619 28.9273 2.80319 28.8851 2.73374 28.841C2.66429 28.7932 2.58205 28.7491 2.48702 28.7087C2.39199 28.6682 2.28964 28.6352 2.17999 28.6094C2.07034 28.5837 1.95703 28.5708 1.84006 28.5708C1.5842 28.5708 1.39414 28.6186 1.26986 28.7142C1.14559 28.8097 1.08345 28.942 1.08345 29.1111C1.08345 29.2361 1.11818 29.3353 1.18762 29.4088C1.25707 29.4786 1.36307 29.5375 1.50562 29.5852C1.64817 29.633 1.82727 29.6845 2.04292 29.7396C2.30609 29.8021 2.53454 29.8774 2.72826 29.9656C2.92198 30.0502 3.07001 30.1641 3.17235 30.3074C3.2747 30.4508 3.32587 30.6401 3.32587 30.8753C3.32587 31.0737 3.28932 31.2447 3.21622 31.388C3.14311 31.5313 3.04077 31.6489 2.90919 31.7408C2.7776 31.829 2.62591 31.8952 2.45412 31.9393C2.28233 31.9797 2.09775 31.9999 1.90037 31.9999C1.70665 31.9999 1.51293 31.9797 1.31921 31.9393C1.12914 31.8989 0.946385 31.8401 0.770939 31.7629C0.599148 31.682 0.44015 31.5846 0.293945 31.4707L0.573562 30.9414C0.621079 30.9892 0.688699 31.0425 0.776422 31.1013C0.8678 31.1564 0.971971 31.2097 1.08893 31.2612C1.20955 31.3126 1.33931 31.3568 1.47821 31.3935C1.62076 31.4266 1.76513 31.4431 1.91134 31.4431C2.15623 31.4431 2.34264 31.4009 2.47057 31.3163C2.60216 31.2281 2.66795 31.1032 2.66795 30.9414C2.66795 30.8091 2.62591 30.7044 2.54185 30.6272C2.45778 30.5463 2.33533 30.4783 2.17451 30.4232C2.01368 30.3681 1.82179 30.313 1.59882 30.2578C1.34297 30.188 1.12914 30.1126 0.95735 30.0318C0.785559 29.9473 0.655802 29.8407 0.56808 29.712C0.484012 29.5797 0.441978 29.4125 0.441978 29.2103C0.441978 28.9531 0.504115 28.7362 0.628389 28.5598C0.752663 28.3797 0.920799 28.2456 1.1328 28.1574C1.34845 28.0655 1.58969 28.0195 1.85651 28.0195C2.03196 28.0195 2.19826 28.0397 2.35543 28.0802C2.5126 28.1169 2.65881 28.1684 2.79405 28.2345C2.93294 28.3007 3.05905 28.376 3.17235 28.4606L2.89274 28.9678Z" fill="white"/>
<path d="M6.68307 31.9889C6.40163 31.9889 6.1476 31.9338 5.92098 31.8235C5.69436 31.7133 5.49881 31.5644 5.33433 31.377C5.16985 31.1858 5.04192 30.9727 4.95054 30.7375C4.86282 30.4986 4.81896 30.2541 4.81896 30.0042C4.81896 29.7433 4.86648 29.4952 4.96151 29.26C5.05654 29.0211 5.18813 28.8097 5.35626 28.626C5.5244 28.4385 5.72177 28.2915 5.94839 28.1849C6.17866 28.0747 6.42721 28.0195 6.69404 28.0195C6.97183 28.0195 7.22403 28.0765 7.45065 28.1904C7.68092 28.3044 7.87647 28.4569 8.03729 28.648C8.20178 28.8391 8.32788 29.0523 8.4156 29.2875C8.50698 29.5228 8.55267 29.7635 8.55267 30.0097C8.55267 30.2707 8.50515 30.5206 8.41012 30.7595C8.31874 30.9947 8.18898 31.2061 8.02085 31.3935C7.85271 31.5773 7.65351 31.7224 7.42323 31.829C7.19662 31.9356 6.9499 31.9889 6.68307 31.9889ZM5.44398 30.0042C5.44398 30.188 5.47323 30.3662 5.53171 30.539C5.59019 30.7117 5.67243 30.8661 5.77843 31.0021C5.88808 31.1344 6.01967 31.2391 6.17318 31.3163C6.3267 31.3935 6.49849 31.4321 6.68855 31.4321C6.88593 31.4321 7.06138 31.3917 7.21489 31.3108C7.36841 31.23 7.49634 31.1215 7.59868 30.9855C7.70468 30.8459 7.78509 30.6915 7.83992 30.5224C7.89474 30.3497 7.92216 30.177 7.92216 30.0042C7.92216 29.8205 7.89292 29.644 7.83444 29.475C7.77961 29.3022 7.69737 29.1497 7.58771 29.0174C7.47806 28.8814 7.34648 28.7748 7.19296 28.6976C7.0431 28.6205 6.87497 28.5819 6.68855 28.5819C6.49118 28.5819 6.31573 28.6223 6.16222 28.7031C6.0087 28.784 5.87894 28.8924 5.77295 29.0284C5.66695 29.1644 5.58471 29.3169 5.52622 29.486C5.4714 29.6551 5.44398 29.8278 5.44398 30.0042Z" fill="white"/>
<path d="M10.0656 29.9767C10.0656 29.7378 10.1077 29.5044 10.1917 29.2765C10.2758 29.045 10.3982 28.8355 10.5591 28.648C10.7236 28.4569 10.9228 28.3062 11.1567 28.1959C11.3906 28.082 11.6556 28.025 11.9517 28.025C12.3026 28.025 12.6059 28.1059 12.8618 28.2676C13.1177 28.4257 13.3077 28.6296 13.432 28.8796L12.9495 29.2048C12.8764 29.0468 12.7832 28.9218 12.6699 28.8299C12.5603 28.7381 12.4396 28.6737 12.308 28.637C12.1801 28.6002 12.054 28.5819 11.9297 28.5819C11.7251 28.5819 11.546 28.6241 11.3924 28.7087C11.2389 28.7895 11.1092 28.8979 11.0032 29.0339C10.9008 29.1699 10.8222 29.3224 10.7674 29.4915C10.7162 29.6606 10.6907 29.8296 10.6907 29.9987C10.6907 30.1862 10.7217 30.3681 10.7839 30.5445C10.846 30.7172 10.9319 30.8716 11.0415 31.0076C11.1549 31.1399 11.2883 31.2447 11.4418 31.3218C11.5953 31.399 11.7634 31.4376 11.9462 31.4376C12.0705 31.4376 12.2002 31.4156 12.3355 31.3715C12.4707 31.3273 12.595 31.2594 12.7083 31.1675C12.8252 31.0719 12.9166 30.947 12.9824 30.7926L13.4923 31.0848C13.4119 31.2796 13.2858 31.445 13.114 31.5809C12.9459 31.7169 12.7558 31.8198 12.5438 31.8897C12.3355 31.9595 12.1289 31.9944 11.9243 31.9944C11.6501 31.9944 11.3998 31.9375 11.1731 31.8235C10.9465 31.7059 10.751 31.5515 10.5865 31.3604C10.422 31.1656 10.2941 30.9488 10.2027 30.7099C10.1113 30.4673 10.0656 30.2229 10.0656 29.9767Z" fill="white"/>
<path d="M15.1842 31.9613V28.0471H15.7983V31.9613H15.1842Z" fill="white"/>
<path d="M18.9259 28.0471H19.5071L21.0203 31.9613H20.3734L19.9622 30.8973H18.4599L18.0542 31.9613H17.4018L18.9259 28.0471ZM19.8416 30.4398L19.2165 28.7252L18.5696 30.4398H19.8416Z" fill="white"/>
<path d="M22.6257 31.9613V28.0471H23.2398V31.4156H25.3287V31.9613H22.6257Z" fill="white"/>
<path d="M30.2166 28.0471H30.7978L32.311 31.9613H31.6641L31.2529 30.8973H29.7506L29.3449 31.9613H28.6925L30.2166 28.0471ZM31.1322 30.4398L30.5072 28.7252L29.8603 30.4398H31.1322Z" fill="white"/>
<path d="M33.9164 31.9613V28.0471H35.6105C35.786 28.0471 35.9468 28.0838 36.093 28.1574C36.2392 28.2309 36.3653 28.3283 36.4713 28.4495C36.581 28.5708 36.665 28.7068 36.7235 28.8575C36.7856 29.0082 36.8167 29.1626 36.8167 29.3206C36.8167 29.4933 36.7856 29.6587 36.7235 29.8168C36.6614 29.9748 36.5718 30.1108 36.4549 30.2247C36.3416 30.3387 36.2081 30.4214 36.0546 30.4728L36.9702 31.9613H36.2794L35.4351 30.5996H34.5304V31.9613H33.9164ZM34.5304 30.0538H35.605C35.7184 30.0538 35.8189 30.0208 35.9066 29.9546C35.9943 29.8884 36.0638 29.8002 36.1149 29.69C36.1661 29.576 36.1917 29.4529 36.1917 29.3206C36.1917 29.1846 36.1625 29.0633 36.104 28.9567C36.0455 28.8465 35.9687 28.7583 35.8737 28.6921C35.7823 28.626 35.6818 28.5929 35.5721 28.5929H34.5304V30.0538Z" fill="white"/>
<path d="M41.4841 28.5929H40.1902V31.9613H39.5707V28.5929H38.2713V28.0471H41.4841V28.5929Z" fill="white"/>
<path d="M46.6315 28.0636H47.2072L47.6897 29.3923L48.1777 28.0636H48.7533L48.0844 29.8058L48.6656 31.2447L49.8773 28.0471H50.5517L48.9562 31.9613H48.4244L47.6952 30.2082L46.9605 31.9613H46.4232L44.8332 28.0471H45.5021L46.7193 31.2447L47.3004 29.8058L46.6315 28.0636Z" fill="white"/>
<path d="M52.135 31.9613V28.0471H52.749V31.9613H52.135Z" fill="white"/>
<path d="M57.6092 28.5929H56.3153V31.9613H55.6957V28.5929H54.3963V28.0471H57.6092V28.5929Z" fill="white"/>
<path d="M62.4516 28.0471V31.9613H61.832V30.2358H59.8692V31.9613H59.2552V28.0471H59.8692V29.6845H61.832V28.0471H62.4516Z" fill="white"/>
<path d="M66.071 31.9889C65.7896 31.9889 65.5356 31.9338 65.3089 31.8235C65.0823 31.7133 64.8868 31.5644 64.7223 31.377C64.5578 31.1858 64.4299 30.9727 64.3385 30.7375C64.2508 30.4986 64.2069 30.2541 64.2069 30.0042C64.2069 29.7433 64.2544 29.4952 64.3495 29.26C64.4445 29.0211 64.5761 28.8097 64.7442 28.626C64.9124 28.4385 65.1097 28.2915 65.3364 28.1849C65.5666 28.0747 65.8152 28.0195 66.082 28.0195C66.3598 28.0195 66.612 28.0765 66.8386 28.1904C67.0689 28.3044 67.2644 28.4569 67.4253 28.648C67.5897 28.8391 67.7158 29.0523 67.8036 29.2875C67.8949 29.5228 67.9406 29.7635 67.9406 30.0097C67.9406 30.2707 67.8931 30.5206 67.7981 30.7595C67.7067 30.9947 67.5769 31.2061 67.4088 31.3935C67.2407 31.5773 67.0415 31.7224 66.8112 31.829C66.5846 31.9356 66.3379 31.9889 66.071 31.9889ZM64.8319 30.0042C64.8319 30.188 64.8612 30.3662 64.9197 30.539C64.9782 30.7117 65.0604 30.8661 65.1664 31.0021C65.276 31.1344 65.4076 31.2391 65.5611 31.3163C65.7147 31.3935 65.8865 31.4321 66.0765 31.4321C66.2739 31.4321 66.4493 31.3917 66.6029 31.3108C66.7564 31.23 66.8843 31.1215 66.9866 30.9855C67.0926 30.8459 67.1731 30.6915 67.2279 30.5224C67.2827 30.3497 67.3101 30.177 67.3101 30.0042C67.3101 29.8205 67.2809 29.644 67.2224 29.475C67.1676 29.3022 67.0853 29.1497 66.9757 29.0174C66.866 28.8814 66.7344 28.7748 66.5809 28.6976C66.4311 28.6205 66.2629 28.5819 66.0765 28.5819C65.8791 28.5819 65.7037 28.6223 65.5502 28.7031C65.3967 28.784 65.2669 28.8924 65.1609 29.0284C65.0549 29.1644 64.9727 29.3169 64.9142 29.486C64.8594 29.6551 64.8319 29.8278 64.8319 30.0042Z" fill="white"/>
<path d="M71.3232 31.9889C71.0125 31.9889 70.7493 31.9356 70.5337 31.829C70.3217 31.7224 70.1499 31.5773 70.0183 31.3935C69.8904 31.2097 69.7954 31.0002 69.7332 30.765C69.6747 30.5298 69.6455 30.2854 69.6455 30.0318V28.0471H70.2596V30.0318C70.2596 30.2119 70.2778 30.3865 70.3144 30.5555C70.3509 30.7209 70.4094 30.8698 70.4898 31.0021C70.5702 31.1344 70.6781 31.2391 70.8133 31.3163C70.9522 31.3935 71.1222 31.4321 71.3232 31.4321C71.5279 31.4321 71.6978 31.3935 71.8331 31.3163C71.972 31.2355 72.0798 31.1289 72.1566 30.9966C72.237 30.8606 72.2955 30.7099 72.332 30.5445C72.3686 30.3791 72.3868 30.2082 72.3868 30.0318V28.0471H73.0064V30.0318C73.0064 30.3001 72.9735 30.5537 72.9077 30.7926C72.8456 31.0278 72.7469 31.2355 72.6116 31.4156C72.48 31.592 72.3082 31.7316 72.0963 31.8345C71.8843 31.9375 71.6266 31.9889 71.3232 31.9889Z" fill="white"/>
<path d="M77.8035 28.5929H76.5096V31.9613H75.89V28.5929H74.5906V28.0471H77.8035V28.5929Z" fill="white"/>
<path d="M81.762 31.9613V28.0471H82.3761V31.4156H84.465V31.9613H81.762Z" fill="white"/>
<path d="M86.0878 31.9613V28.0471H86.7018V31.9613H86.0878Z" fill="white"/>
<path d="M91.9787 31.9613V29.1718L90.8328 31.2888H90.471L89.3196 29.1718V31.9613H88.7055V28.0471H89.3634L90.6519 30.4398L91.9403 28.0471H92.5982V31.9613H91.9787Z" fill="white"/>
<path d="M94.6001 31.9613V28.0471H95.2141V31.9613H94.6001Z" fill="white"/>
<path d="M100.074 28.5929H98.7804V31.9613H98.1608V28.5929H96.8614V28.0471H100.074V28.5929Z" fill="white"/>
<path d="M104.023 28.9678C103.986 28.9273 103.933 28.8851 103.864 28.841C103.795 28.7932 103.712 28.7491 103.617 28.7087C103.522 28.6682 103.42 28.6352 103.31 28.6094C103.201 28.5837 103.087 28.5708 102.97 28.5708C102.714 28.5708 102.524 28.6186 102.4 28.7142C102.276 28.8097 102.214 28.942 102.214 29.1111C102.214 29.2361 102.248 29.3353 102.318 29.4088C102.387 29.4786 102.493 29.5375 102.636 29.5852C102.778 29.633 102.958 29.6845 103.173 29.7396C103.436 29.8021 103.665 29.8774 103.859 29.9656C104.052 30.0502 104.2 30.1641 104.303 30.3074C104.405 30.4508 104.456 30.6401 104.456 30.8753C104.456 31.0737 104.42 31.2447 104.346 31.388C104.273 31.5313 104.171 31.6489 104.039 31.7408C103.908 31.829 103.756 31.8952 103.584 31.9393C103.413 31.9797 103.228 31.9999 103.031 31.9999C102.837 31.9999 102.643 31.9797 102.449 31.9393C102.259 31.8989 102.077 31.8401 101.901 31.7629C101.729 31.682 101.57 31.5846 101.424 31.4707L101.704 30.9414C101.751 30.9892 101.819 31.0425 101.907 31.1013C101.998 31.1564 102.102 31.2097 102.219 31.2612C102.34 31.3126 102.47 31.3568 102.608 31.3935C102.751 31.4266 102.895 31.4431 103.042 31.4431C103.286 31.4431 103.473 31.4009 103.601 31.3163C103.732 31.2281 103.798 31.1032 103.798 30.9414C103.798 30.8091 103.756 30.7044 103.672 30.6272C103.588 30.5463 103.466 30.4783 103.305 30.4232C103.144 30.3681 102.952 30.313 102.729 30.2578C102.473 30.188 102.259 30.1126 102.088 30.0318C101.916 29.9473 101.786 29.8407 101.698 29.712C101.614 29.5797 101.572 29.4125 101.572 29.2103C101.572 28.9531 101.634 28.7362 101.759 28.5598C101.883 28.3797 102.051 28.2456 102.263 28.1574C102.479 28.0655 102.72 28.0195 102.987 28.0195C103.162 28.0195 103.329 28.0397 103.486 28.0802C103.643 28.1169 103.789 28.1684 103.924 28.2345C104.063 28.3007 104.189 28.376 104.303 28.4606L104.023 28.9678Z" fill="white"/>
<path d="M18.1915 17.9284V7.93876C18.1915 7.18899 18.1258 6.58256 17.9942 6.11946C17.8845 5.63432 17.6762 5.25943 17.3691 4.99481C17.084 4.70813 16.6783 4.50966 16.152 4.3994C15.6476 4.28914 15.0006 4.23401 14.2111 4.23401H8.88195C8.11437 4.23401 7.46742 4.28914 6.94108 4.3994C6.43667 4.50966 6.03095 4.70813 5.72392 4.99481C5.41689 5.25943 5.19758 5.63432 5.066 6.11946C4.95635 6.58256 4.90152 7.18899 4.90152 7.93876V17.9284H0V7.77337C0 6.33999 0.131584 5.12712 0.394753 4.13477C0.679853 3.14243 1.15136 2.34855 1.80929 1.75314C2.46721 1.13569 3.34444 0.694643 4.44097 0.430017C5.53751 0.143339 6.90818 0 8.55299 0H14.5072C16.1739 0 17.5556 0.143339 18.6521 0.430017C19.7486 0.694643 20.6259 1.13569 21.2838 1.75314C21.9417 2.34855 22.4022 3.14243 22.6654 4.13477C22.9505 5.12712 23.0931 6.33999 23.0931 7.77337V17.9284H18.1915Z" fill="white"/>
<path d="M32.9768 17.9284C31.6829 17.9284 30.6192 17.8181 29.7859 17.5976C28.9525 17.3771 28.2836 17.0683 27.7792 16.6714C27.2967 16.2524 26.9568 15.7562 26.7594 15.1829C26.5621 14.5875 26.4634 13.9259 26.4634 13.1982V11.5112C26.4634 10.7614 26.5511 10.0999 26.7265 9.52652C26.9239 8.93111 27.2529 8.43494 27.7134 8.038C28.174 7.61901 28.799 7.31028 29.5885 7.11181C30.3999 6.89129 31.4197 6.78103 32.6478 6.78103H45.8392V6.38409C45.8392 5.23738 45.6089 4.47658 45.1484 4.1017C44.6878 3.70476 43.9093 3.50629 42.8127 3.50629H37.9441V0H42.8127C44.2382 0 45.4444 0.132313 46.4313 0.396939C47.4401 0.661565 48.2625 1.06953 48.8985 1.62083C49.5345 2.15008 49.9951 2.8337 50.2802 3.67168C50.5872 4.48761 50.7407 5.46893 50.7407 6.61564V10.982C50.7407 12.283 50.6091 13.3746 50.3459 14.2567C50.1047 15.1388 49.6661 15.8555 49.0301 16.4068C48.416 16.9581 47.5827 17.355 46.53 17.5976C45.4993 17.8181 44.1944 17.9284 42.6154 17.9284H32.9768ZM45.8392 9.82422H33.1742C32.604 9.82422 32.1544 9.95653 31.8254 10.2212C31.4965 10.4637 31.332 10.9379 31.332 11.6435V12.8674C31.332 13.5069 31.5074 13.948 31.8583 14.1905C32.2092 14.4331 32.7027 14.5544 33.3387 14.5544H42.5496C43.1198 14.5544 43.6132 14.5103 44.0299 14.4221C44.4466 14.3339 44.7865 14.1795 45.0497 13.959C45.3128 13.7164 45.5102 13.3856 45.6418 12.9666C45.7734 12.5477 45.8392 12.0074 45.8392 11.3458V9.82422Z" fill="white"/>
<path d="M69.1589 0C70.8257 0 72.2073 0.143339 73.3038 0.430017C74.4004 0.694643 75.2776 1.13569 75.9355 1.75314C76.5934 2.34855 77.054 3.14243 77.3172 4.13477C77.6023 5.12712 77.7448 6.33999 77.7448 7.77337V10.1881C77.7448 11.6215 77.6023 12.8343 77.3172 13.8267C77.054 14.797 76.5934 15.5909 75.9355 16.2083C75.2776 16.8037 74.4004 17.2448 73.3038 17.5314C72.2073 17.7961 70.8257 17.9284 69.1589 17.9284H59.2243V23.287H54.3228V7.77337C54.3228 6.33999 54.4544 5.12712 54.7175 4.13477C55.0026 3.14243 55.4741 2.34855 56.1321 1.75314C56.79 1.13569 57.6672 0.694643 58.7638 0.430017C59.8603 0.143339 61.2419 0 62.9087 0H69.1589ZM72.8433 7.90569C72.8433 7.11181 72.7775 6.4723 72.6459 5.98715C72.5363 5.50201 72.317 5.12712 71.988 4.86249C71.659 4.59787 71.2094 4.42145 70.6392 4.33324C70.091 4.24503 69.3892 4.20093 68.5339 4.20093H63.0731C62.3056 4.20093 61.6696 4.25606 61.1652 4.36632C60.6608 4.47658 60.266 4.67505 59.9809 4.96173C59.6958 5.22635 59.4984 5.60124 59.3888 6.08639C59.2791 6.54948 59.2243 7.14489 59.2243 7.87261V13.7274H68.5668C69.4221 13.7274 70.1239 13.6944 70.6721 13.6282C71.2204 13.54 71.659 13.3636 71.988 13.099C72.317 12.8343 72.5363 12.4594 72.6459 11.9743C72.7775 11.4892 72.8433 10.8386 72.8433 10.0227V7.90569Z" fill="white"/>
<path d="M87.2361 17.9284C85.9422 17.9284 84.8785 17.8181 84.0452 17.5976C83.2118 17.3771 82.5429 17.0683 82.0385 16.6714C81.556 16.2524 81.2161 15.7562 81.0187 15.1829C80.8214 14.5875 80.7227 13.9259 80.7227 13.1982V11.5112C80.7227 10.7614 80.8104 10.0999 80.9858 9.52652C81.1832 8.93111 81.5122 8.43494 81.9727 8.038C82.4333 7.61901 83.0583 7.31028 83.8478 7.11181C84.6592 6.89129 85.679 6.78103 86.9071 6.78103H100.098V6.38409C100.098 5.23738 99.8682 4.47658 99.4077 4.1017C98.9471 3.70476 98.1686 3.50629 97.072 3.50629H92.2034V0H97.072C98.4975 0 99.7037 0.132313 100.691 0.396939C101.699 0.661565 102.522 1.06953 103.158 1.62083C103.794 2.15008 104.254 2.8337 104.539 3.67168C104.846 4.48761 105 5.46893 105 6.61564V10.982C105 12.283 104.868 13.3746 104.605 14.2567C104.364 15.1388 103.925 15.8555 103.289 16.4068C102.675 16.9581 101.842 17.355 100.789 17.5976C99.7586 17.8181 98.4537 17.9284 96.8747 17.9284H87.2361ZM100.098 9.82422H87.4335C86.8633 9.82422 86.4137 9.95653 86.0847 10.2212C85.7558 10.4637 85.5913 10.9379 85.5913 11.6435V12.8674C85.5913 13.5069 85.7667 13.948 86.1176 14.1905C86.4685 14.4331 86.962 14.5544 87.598 14.5544H96.8089C97.3791 14.5544 97.8725 14.5103 98.2892 14.4221C98.7059 14.3339 99.0458 14.1795 99.309 13.959C99.5721 13.7164 99.7695 13.3856 99.9011 12.9666C100.033 12.5477 100.098 12.0074 100.098 11.3458V9.82422Z" fill="white"/>
</svg>
