<svg width="24" height="24" viewBox="0 0 24 24" fill="none" xmlns="http://www.w3.org/2000/svg">
<path d="M9.56965 20.0754C9.93726 19.9557 10.1382 19.5606 10.0186 19.193C9.89887 18.8254 9.50384 18.6245 9.13623 18.7441L9.56965 20.0754ZM3.19752 15.5617C2.82663 15.4526 2.43753 15.6649 2.32844 16.0358C2.21936 16.4067 2.43159 16.7958 2.80248 16.9048L3.19752 15.5617ZM15.0059 21.5273C15.0059 21.9139 15.3193 22.2274 15.7059 22.2274C16.0925 22.2274 16.4059 21.9139 16.4059 21.5273H15.0059ZM15.1765 15.7038L15.1019 15.0078L13.6464 15.1637L14.6815 16.1988L15.1765 15.7038ZM21 9.35088H21.7V9.35017L21 9.35088ZM19.6235 5.96264L18.9683 5.71619L18.812 6.13178L19.1214 6.45031L19.6235 5.96264ZM19.5176 2.57441L20.1562 2.28753L20.0207 1.98604L19.7018 1.89907L19.5176 2.57441ZM15.8118 3.95088L15.6353 4.62828L15.939 4.70736L16.2001 4.53331L15.8118 3.95088ZM9.24706 3.95088L8.85877 4.53331L9.11984 4.70736L9.42348 4.62828L9.24706 3.95088ZM5.54118 2.57441L5.35699 1.89907L5.03812 1.98604L4.90266 2.28753L5.54118 2.57441ZM5.43529 5.96264L5.93747 6.45031L6.2468 6.13178L6.09047 5.71619L5.43529 5.96264ZM4.05882 9.35088L3.35882 9.35017V9.35088H4.05882ZM9.88235 15.7038L10.3773 16.1988L11.4124 15.1637L9.95693 15.0078L9.88235 15.7038ZM9.35294 17.8215H10.0529V17.7779L10.0475 17.7346L9.35294 17.8215ZM8.65294 21.5273C8.65294 21.9139 8.96634 22.2274 9.35294 22.2274C9.73954 22.2274 10.0529 21.9139 10.0529 21.5273H8.65294ZM9.13623 18.7441C8.08717 19.0857 7.37955 19.0785 6.8812 18.9391C6.38741 18.801 6.01406 18.5096 5.67234 18.1166C5.2926 17.6799 5.05992 17.2662 4.67456 16.7452C4.33874 16.2911 3.88399 15.7636 3.19752 15.5617L2.80248 16.9048C3.01601 16.9676 3.23626 17.1549 3.54897 17.5777C3.81213 17.9335 4.20152 18.5587 4.61589 19.0353C5.06829 19.5555 5.66111 20.0516 6.50409 20.2874C7.34251 20.5219 8.34225 20.475 9.56965 20.0754L9.13623 18.7441ZM16.4059 21.5273V17.8215H15.0059V21.5273H16.4059ZM16.4059 17.8215C16.4059 17.3693 16.4355 16.8826 16.3699 16.4887C16.2892 16.0048 16.0749 15.6123 15.6714 15.2088L14.6815 16.1988C14.9133 16.4306 14.9637 16.5676 14.9889 16.7189C15.0292 16.9604 15.0059 17.2148 15.0059 17.8215H16.4059ZM15.251 16.3998C16.78 16.236 18.4101 15.8446 19.6582 14.7639C20.9363 13.6572 21.7 11.9309 21.7 9.35088H20.3C20.3 11.6415 19.6343 12.9328 18.7418 13.7055C17.8193 14.5043 16.5377 14.854 15.1019 15.0078L15.251 16.3998ZM21.7 9.35017C21.6985 7.90298 21.1339 6.51317 20.1257 5.47497L19.1214 6.45031C19.8762 7.22759 20.2989 8.26811 20.3 9.35159L21.7 9.35017ZM20.2787 6.2091C20.7572 4.937 20.7132 3.52727 20.1562 2.28753L18.8791 2.86129C19.2846 3.76382 19.3167 4.7901 18.9683 5.71619L20.2787 6.2091ZM19.5176 2.57441C19.7018 1.89907 19.7012 1.8989 19.7006 1.89873C19.7003 1.89867 19.6997 1.89849 19.6993 1.89838C19.6984 1.89814 19.6975 1.8979 19.6966 1.89766C19.6947 1.89718 19.6928 1.89668 19.6909 1.89617C19.6869 1.89516 19.6827 1.8941 19.6781 1.893C19.669 1.89081 19.6587 1.88847 19.6472 1.88606C19.6242 1.88125 19.5964 1.87618 19.5638 1.87142C19.4986 1.86189 19.4146 1.85371 19.3115 1.85142C19.105 1.84683 18.8248 1.86596 18.4689 1.94333C17.7577 2.09794 16.751 2.48345 15.4235 3.36844L16.2001 4.53331C17.4137 3.72419 18.2599 3.42147 18.7663 3.31137C19.0193 3.25638 19.1892 3.24905 19.2804 3.25107C19.3262 3.25209 19.353 3.25549 19.3615 3.25672C19.3657 3.25734 19.3654 3.25743 19.3607 3.25644C19.3584 3.25595 19.3549 3.25519 19.3504 3.2541C19.3481 3.25355 19.3455 3.25292 19.3427 3.2522C19.3413 3.25183 19.3398 3.25145 19.3383 3.25104C19.3375 3.25084 19.3367 3.25063 19.3359 3.25041C19.3355 3.2503 19.3349 3.25014 19.3347 3.25008C19.3341 3.24991 19.3335 3.24974 19.5176 2.57441ZM15.9882 3.27348C13.7202 2.68279 11.3387 2.68279 9.07064 3.27348L9.42348 4.62828C11.4601 4.09786 13.5987 4.09786 15.6353 4.62828L15.9882 3.27348ZM9.63535 3.36844C8.30786 2.48345 7.3011 2.09794 6.58988 1.94333C6.234 1.86596 5.95387 1.84683 5.74732 1.85142C5.64423 1.85371 5.56021 1.86189 5.49501 1.87142C5.46244 1.87618 5.43466 1.88125 5.41165 1.88606C5.40014 1.88847 5.38983 1.89081 5.38072 1.893C5.37617 1.8941 5.37191 1.89516 5.36796 1.89617C5.36598 1.89668 5.36408 1.89718 5.36225 1.89766C5.36134 1.8979 5.36044 1.89814 5.35957 1.89838C5.35913 1.89849 5.35849 1.89867 5.35827 1.89873C5.35763 1.8989 5.35699 1.89907 5.54118 2.57441C5.72536 3.24974 5.72473 3.24991 5.72411 3.25008C5.72391 3.25014 5.7233 3.2503 5.72289 3.25041C5.72209 3.25063 5.7213 3.25084 5.72053 3.25104C5.71899 3.25145 5.71751 3.25183 5.7161 3.2522C5.71329 3.25292 5.71074 3.25355 5.70847 3.2541C5.70392 3.25519 5.70046 3.25595 5.69811 3.25644C5.69339 3.25743 5.69312 3.25734 5.69736 3.25672C5.70578 3.25549 5.73261 3.25209 5.77842 3.25107C5.86966 3.24905 6.03953 3.25638 6.29248 3.31137C6.7989 3.42147 7.64508 3.72419 8.85877 4.53331L9.63535 3.36844ZM4.90266 2.28753C4.34565 3.52727 4.3016 4.937 4.78011 6.2091L6.09047 5.71619C5.74212 4.7901 5.77419 3.76382 6.17969 2.86129L4.90266 2.28753ZM4.93312 5.47497C3.92491 6.51317 3.3603 7.90298 3.35882 9.35017L4.75882 9.35159C4.75993 8.26811 5.18264 7.22759 5.93747 6.45031L4.93312 5.47497ZM3.35882 9.35088C3.35882 11.9309 4.1225 13.6572 5.40062 14.7639C6.64871 15.8446 8.27886 16.236 9.80778 16.3998L9.95693 15.0078C8.52114 14.854 7.23952 14.5043 6.31703 13.7055C5.42456 12.9328 4.75882 11.6415 4.75882 9.35088H3.35882ZM9.38738 15.2088C8.97641 15.6198 8.74638 16.0618 8.6523 16.551C8.56367 17.0119 8.60451 17.4776 8.65835 17.9083L10.0475 17.7346C9.99549 17.3183 9.98339 17.0428 10.0271 16.8154C10.0654 16.6164 10.153 16.4231 10.3773 16.1988L9.38738 15.2088ZM8.65294 17.8215V21.5273H10.0529V17.8215H8.65294Z" fill="white"/>
</svg>
