<svg width="24" height="24" viewBox="0 0 24 24" fill="none" xmlns="http://www.w3.org/2000/svg">
<path fill-rule="evenodd" clip-rule="evenodd" d="M2 8C2 4.68629 4.68629 2 8 2H16C19.3137 2 22 4.68629 22 8V16C22 19.3137 19.3137 22 16 22H8C4.68629 22 2 19.3137 2 16V8Z" stroke="white" stroke-width="1.4" stroke-linecap="round" stroke-linejoin="round"/>
<path fill-rule="evenodd" clip-rule="evenodd" d="M16.0001 11.37C16.2532 13.077 15.3831 14.7538 13.8417 15.5297C12.3003 16.3055 10.4351 16.0054 9.2149 14.7852C7.99469 13.5649 7.69455 11.6998 8.47038 10.1584C9.24621 8.61697 10.9231 7.74687 12.6301 7.99999C14.373 8.25846 15.7416 9.62702 16.0001 11.37Z" stroke="white" stroke-width="1.4" stroke-linecap="round" stroke-linejoin="round"/>
</svg>
