<svg width="24" height="24" viewBox="0 0 24 24" fill="none" xmlns="http://www.w3.org/2000/svg">
<path d="M12.8374 11.8277C12.8374 15.2175 10.1146 17.9552 6.76884 17.9552C3.42304 17.9552 0.7 15.2169 0.7 11.8277C0.7 8.43849 3.42286 5.7 6.76884 5.7C10.1148 5.7 12.8374 8.43782 12.8374 11.8277Z" stroke="white" stroke-width="1.4"/>
<mask id="path-2-inside-1_723_3673" fill="white">
<path d="M20.9627 11.8281C20.9627 15.3775 19.4474 18.2559 17.5783 18.2559C15.7091 18.2559 14.1938 15.3775 14.1938 11.8281C14.1938 8.27883 15.7089 5.40039 17.578 5.40039C19.4472 5.40039 20.9625 8.2779 20.9625 11.8281"/>
</mask>
<path d="M19.5627 11.8281C19.5627 13.4222 19.2194 14.7962 18.7326 15.7208C18.2118 16.71 17.7347 16.8559 17.5783 16.8559V19.6559C19.291 19.6559 20.5061 18.3626 21.2102 17.0252C21.9483 15.6233 22.3627 13.7834 22.3627 11.8281H19.5627ZM17.5783 16.8559C17.4219 16.8559 16.9447 16.71 16.4239 15.7208C15.9371 14.7962 15.5938 13.4222 15.5938 11.8281H12.7938C12.7938 13.7834 13.2082 15.6233 13.9463 17.0252C14.6504 18.3626 15.8655 19.6559 17.5783 19.6559V16.8559ZM15.5938 11.8281C15.5938 10.2341 15.9371 8.86004 16.4238 7.93545C16.9446 6.94626 17.4217 6.80039 17.578 6.80039V4.00039C15.8652 4.00039 14.6502 5.29374 13.9462 6.6311C13.2081 8.03305 12.7938 9.87289 12.7938 11.8281H15.5938ZM17.578 6.80039C17.7346 6.80039 18.2117 6.94631 18.7324 7.9352C19.2192 8.85962 19.5625 10.2336 19.5625 11.8281H22.3625C22.3625 9.87245 21.9481 8.03255 21.21 6.63066C20.5057 5.29323 19.2906 4.00039 17.578 4.00039V6.80039Z" fill="white" mask="url(#path-2-inside-1_723_3673)"/>
<path d="M23.3 11.8276C23.3 13.3844 23.1691 14.7743 22.9659 15.7573C22.9157 16.0001 22.8629 16.2093 22.8097 16.3848C22.7566 16.2093 22.7038 16.0002 22.6536 15.7576C22.4505 14.7747 22.3196 13.3848 22.3196 11.8276C22.3196 10.2704 22.4506 8.88055 22.6537 7.89763C22.7038 7.65505 22.7566 7.44602 22.8098 7.27058C22.8629 7.44601 22.9157 7.65502 22.9658 7.89759C23.169 8.88046 23.3 10.2703 23.3 11.8276Z" stroke="white" stroke-width="1.4"/>
</svg>
