<svg width="24" height="24" viewBox="0 0 24 24" fill="none" xmlns="http://www.w3.org/2000/svg">
<path d="M22.9579 1.06689L13.5195 8.0691L15.2724 3.93797L22.9579 1.06689Z" fill="#E17726" stroke="#E17726" stroke-width="0.712817" stroke-linecap="round" stroke-linejoin="round"/>
<path d="M1.19531 1.06738L10.5478 8.13586L8.88075 3.93846L1.19531 1.06738Z" fill="#E27625" stroke="#E27625" stroke-width="0.712817" stroke-linecap="round" stroke-linejoin="round"/>
<path d="M19.5655 17.2988L17.0547 21.1462L22.4272 22.6238L23.9626 17.3838L19.5655 17.2988Z" fill="#E27625" stroke="#E27625" stroke-width="0.712817" stroke-linecap="round" stroke-linejoin="round"/>
<path d="M0.199219 17.3833L1.72529 22.6233L7.09782 21.1457L4.59637 17.2983L0.199219 17.3833Z" fill="#E27625" stroke="#E27625" stroke-width="0.712817" stroke-linecap="round" stroke-linejoin="round"/>
<path d="M6.80175 10.7976L5.30469 13.0628L10.6303 13.2999L10.4501 7.56641L6.80175 10.7976Z" fill="#E27625" stroke="#E27625" stroke-width="0.712817" stroke-linecap="round" stroke-linejoin="round"/>
<path d="M17.3481 10.7979L13.6427 7.50049L13.5195 13.3002L18.8451 13.0631L17.3481 10.7979Z" fill="#E27625" stroke="#E27625" stroke-width="0.712817" stroke-linecap="round" stroke-linejoin="round"/>
<path d="M7.09766 21.1464L10.3107 19.5819L7.54293 17.4219L7.09766 21.1464Z" fill="#E27625" stroke="#E27625" stroke-width="0.712817" stroke-linecap="round" stroke-linejoin="round"/>
<path d="M13.8438 19.5815L17.0568 21.146L16.6115 17.4214L13.8438 19.5815Z" fill="#E27625" stroke="#E27625" stroke-width="0.712817" stroke-linecap="round" stroke-linejoin="round"/>
<path d="M17.0568 21.146L13.8438 19.5815L14.0995 21.6763L14.0715 22.5575L17.0568 21.146Z" fill="#D5BFB2" stroke="#D5BFB2" stroke-width="0.712817" stroke-linecap="round" stroke-linejoin="round"/>
<path d="M7.09766 21.1456L10.0829 22.557L10.0642 21.6758L10.3107 19.5811L7.09766 21.1456Z" fill="#D5BFB2" stroke="#D5BFB2" stroke-width="0.712817" stroke-linecap="round" stroke-linejoin="round"/>
<path d="M10.1374 16.0382L7.46484 15.2522L9.35046 14.3896L10.1374 16.0382Z" fill="#233447" stroke="#233447" stroke-width="0.712817" stroke-linecap="round" stroke-linejoin="round"/>
<path d="M14.0156 16.0377L14.8025 14.3892L16.6975 15.2517L14.0156 16.0377Z" fill="#233447" stroke="#233447" stroke-width="0.712817" stroke-linecap="round" stroke-linejoin="round"/>
<path d="M7.09937 21.1461L7.56331 17.2983L4.59766 17.3833L7.09937 21.1461Z" fill="#CC6228" stroke="#CC6228" stroke-width="0.712817" stroke-linecap="round" stroke-linejoin="round"/>
<path d="M16.5898 17.2983L17.0538 21.1461L19.5648 17.3833L16.5898 17.2983Z" fill="#CC6228" stroke="#CC6228" stroke-width="0.712817" stroke-linecap="round" stroke-linejoin="round"/>
<path d="M18.8451 13.0635L13.5195 13.3005L14.0123 16.038L14.7991 14.3897L16.6938 15.2521L18.8451 13.0635Z" fill="#CC6228" stroke="#CC6228" stroke-width="0.712817" stroke-linecap="round" stroke-linejoin="round"/>
<path d="M7.46535 15.2516L9.35067 14.3893L10.1375 16.0375L10.6303 13.3001L5.30469 13.063L7.46535 15.2516Z" fill="#CC6228" stroke="#CC6228" stroke-width="0.712817" stroke-linecap="round" stroke-linejoin="round"/>
<path d="M5.30469 13.063L7.54095 17.4216L7.46535 15.2516L5.30469 13.063Z" fill="#E27525" stroke="#E27525" stroke-width="0.712817" stroke-linecap="round" stroke-linejoin="round"/>
<path d="M16.6943 15.2516L16.6094 17.4216L18.8456 13.063L16.6943 15.2516Z" fill="#E27525" stroke="#E27525" stroke-width="0.712817" stroke-linecap="round" stroke-linejoin="round"/>
<path d="M10.6334 13.3003L10.1406 16.0378L10.766 19.2689L10.8985 15.0148L10.6334 13.3003Z" fill="#E27525" stroke="#E27525" stroke-width="0.712817" stroke-linecap="round" stroke-linejoin="round"/>
<path d="M13.5214 13.2998L13.2656 15.005L13.3888 19.2685L14.0142 16.0373L13.5214 13.2998Z" fill="#E27525" stroke="#E27525" stroke-width="0.712817" stroke-linecap="round" stroke-linejoin="round"/>
<path d="M14.016 16.0378L13.3906 19.269L13.8452 19.5817L16.6125 17.4219L16.6974 15.252L14.016 16.0378Z" fill="#F5841F" stroke="#F5841F" stroke-width="0.712817" stroke-linecap="round" stroke-linejoin="round"/>
<path d="M7.46484 15.252L7.54044 17.4219L10.3078 19.5817L10.7623 19.269L10.137 16.0378L7.46484 15.252Z" fill="#F5841F" stroke="#F5841F" stroke-width="0.712817" stroke-linecap="round" stroke-linejoin="round"/>
<path d="M14.0719 22.5568L14.0999 21.6757L13.8637 21.4675H10.2907L10.0639 21.6757L10.0826 22.5568L7.09766 21.1455L8.14024 21.9977L10.2627 23.4668H13.8917L16.0142 21.9977L17.0568 21.1455L14.0719 22.5568Z" fill="#C0AC9D" stroke="#C0AC9D" stroke-width="0.712817" stroke-linecap="round" stroke-linejoin="round"/>
<path d="M13.8425 19.5817L13.388 19.269H10.7634L10.3089 19.5817L10.0625 21.6761L10.2893 21.468H13.8621L14.0982 21.6761L13.8425 19.5817Z" fill="#161616" stroke="#161616" stroke-width="0.712817" stroke-linecap="round" stroke-linejoin="round"/>
<path d="M23.3577 8.52459L24.1539 4.65854L22.9601 1.06689L13.8438 7.83296L17.3505 10.7983L22.3058 12.2488L23.396 10.9691L22.9218 10.6284L23.6797 9.93586L23.1019 9.4813L23.8598 8.90354L23.3577 8.52459Z" fill="#763E1A" stroke="#763E1A" stroke-width="0.712817" stroke-linecap="round" stroke-linejoin="round"/>
<path d="M0 4.65854L0.805506 8.52459L0.294015 8.90354L1.05192 9.4813L0.474156 9.93586L1.23206 10.6284L0.757904 10.9691L1.84809 12.2488L6.8034 10.7983L10.3101 7.83296L1.19379 1.06689L0 4.65854Z" fill="#763E1A" stroke="#763E1A" stroke-width="0.712817" stroke-linecap="round" stroke-linejoin="round"/>
<path d="M22.3039 12.2483L17.3486 10.7979L18.8457 13.0632L16.6094 17.422L19.5654 17.3838H23.9625L22.3039 12.2483Z" fill="#F5841F" stroke="#F5841F" stroke-width="0.712817" stroke-linecap="round" stroke-linejoin="round"/>
<path d="M6.80381 10.7983L1.8485 12.2488L0.199219 17.3843H4.59637L7.54304 17.4225L5.30667 13.0637L6.80381 10.7983Z" fill="#F5841F" stroke="#F5841F" stroke-width="0.712817" stroke-linecap="round" stroke-linejoin="round"/>
<path d="M13.5213 13.3002L13.8433 7.83277L15.2741 3.93799H8.87891L10.3097 7.83277L10.6317 13.3002L10.7549 15.0241L10.7642 19.2689H13.3888L13.3981 15.0241L13.5213 13.3002Z" fill="#F5841F" stroke="#F5841F" stroke-width="0.712817" stroke-linecap="round" stroke-linejoin="round"/>
</svg>
