<svg width="192" height="192" viewBox="0 0 192 192" fill="none" xmlns="http://www.w3.org/2000/svg">
<rect width="192" height="192" fill="#F5F5F5"/>
<g clip-path="url(#clip0_289_714)">
<path fill-rule="evenodd" clip-rule="evenodd" d="M96 192C149.019 192 192 149.019 192 96C192 42.9807 149.019 0 96 0C42.9807 0 0 42.9807 0 96C0 149.019 42.9807 192 96 192ZM127.509 91.1527V138.375H150.75V90.3709C150.75 83.595 150.074 77.8616 148.722 73.1707C147.474 68.4797 145.291 64.7269 142.171 61.9124C139.051 58.9935 134.892 56.9087 129.692 55.6577C124.493 54.3026 117.942 53.625 110.038 53.625H81.8056C74.0064 53.625 67.5071 54.3026 62.3077 55.6577C57.1083 56.9087 52.9487 58.9935 49.8291 61.9124C46.7094 64.7269 44.4736 68.4797 43.1218 73.1707C41.8739 77.8616 41.25 83.595 41.25 90.3709V138.375H64.4915V91.1527C64.4915 87.6084 64.7514 84.7417 65.2714 82.5526C65.8953 80.2592 66.9352 78.4871 68.391 77.2362C69.8469 75.881 71.7707 74.9428 74.1624 74.4216C76.6581 73.9004 79.7258 73.6398 83.3654 73.6398H108.635C112.378 73.6398 115.446 73.9004 117.838 74.4216C120.333 74.9428 122.257 75.881 123.609 77.2362C125.065 78.4871 126.053 80.2592 126.573 82.5526C127.197 84.7417 127.509 87.6084 127.509 91.1527Z" fill="#16E6EF"/>
</g>
<defs>
<clipPath id="clip0_289_714">
<rect width="192" height="192" fill="white"/>
</clipPath>
</defs>
</svg>
