<svg width="192" height="192" viewBox="0 0 192 192" fill="none" xmlns="http://www.w3.org/2000/svg">
<g clip-path="url(#clip0_2270_4688)">
<circle cx="96" cy="96" r="96" fill="#16E6EF"/>
<path d="M127.509 138.375V91.1527C127.509 87.6084 127.197 84.7417 126.573 82.5526C126.053 80.2592 125.065 78.4871 123.609 77.2362C122.257 75.881 120.333 74.9428 117.838 74.4216C115.446 73.9004 112.378 73.6398 108.635 73.6398H83.3654C79.7258 73.6398 76.6581 73.9004 74.1624 74.4216C71.7707 74.9428 69.8469 75.881 68.391 77.2362C66.9352 78.4871 65.8953 80.2592 65.2714 82.5526C64.7514 84.7417 64.4915 87.6084 64.4915 91.1527V138.375H41.25V90.3709C41.25 83.595 41.8739 77.8616 43.1218 73.1707C44.4736 68.4797 46.7094 64.7269 49.8291 61.9124C52.9487 58.9935 57.1083 56.9087 62.3077 55.6578C67.5071 54.3026 74.0064 53.625 81.8056 53.625H110.038C117.942 53.625 124.493 54.3026 129.692 55.6578C134.892 56.9087 139.051 58.9935 142.171 61.9124C145.291 64.7269 147.474 68.4797 148.722 73.1707C150.074 77.8616 150.75 83.595 150.75 90.3709V138.375H127.509Z" fill="#102324"/>
</g>
<defs>
<clipPath id="clip0_2270_4688">
<rect width="192" height="192" fill="white"/>
</clipPath>
</defs>
</svg>
