<svg width="32" height="32" viewBox="0 0 32 32" fill="none" xmlns="http://www.w3.org/2000/svg">
<path d="M24.6325 27V14.1845C24.6325 13.2226 24.547 12.4447 24.3761 11.8506C24.2336 11.2282 23.963 10.7472 23.5641 10.4077C23.1937 10.04 22.6667 9.78536 21.9829 9.64391C21.3276 9.50246 20.4872 9.43174 19.4615 9.43174H12.5385C11.5413 9.43174 10.7009 9.50246 10.0171 9.64391C9.36182 9.78536 8.83476 10.04 8.4359 10.4077C8.03704 10.7472 7.75214 11.2282 7.5812 11.8506C7.43875 12.4447 7.36752 13.2226 7.36752 14.1845V27H1V13.9723C1 12.1335 1.17094 10.5775 1.51282 9.30443C1.88319 8.03137 2.49573 7.01292 3.35043 6.24908C4.20513 5.45695 5.34473 4.89115 6.76923 4.55166C8.19373 4.18389 9.97436 4 12.1111 4H19.8462C22.0114 4 23.8063 4.18389 25.2308 4.55166C26.6553 4.89115 27.7949 5.45695 28.6496 6.24908C29.5043 7.01292 30.1026 8.03137 30.4444 9.30443C30.8148 10.5775 31 12.1335 31 13.9723V27H24.6325Z" fill="#16E6EF"/>
</svg>
