<svg width="17" height="13" viewBox="0 0 17 13" fill="none" xmlns="http://www.w3.org/2000/svg">
<g clip-path="url(#clip0_840_3046)">
<path d="M13.3917 13V5.75646C13.3917 5.21279 13.3433 4.77306 13.2464 4.43727C13.1657 4.08549 13.0123 3.81365 12.7863 3.62177C12.5764 3.4139 12.2778 3.26999 11.8903 3.19004C11.519 3.11009 11.0427 3.07011 10.4615 3.07011H6.53846C5.97341 3.07011 5.49715 3.11009 5.10969 3.19004C4.73837 3.26999 4.4397 3.4139 4.21368 3.62177C3.98765 3.81365 3.82621 4.08549 3.72935 4.43727C3.64862 4.77306 3.60826 5.21279 3.60826 5.75646V13H0V5.63653C0 4.59717 0.0968661 3.71771 0.290598 2.99816C0.500475 2.2786 0.847578 1.70295 1.33191 1.27122C1.81624 0.823494 2.46201 0.503691 3.26923 0.311808C4.07645 0.103936 5.08547 0 6.2963 0H10.6795C11.9065 0 12.9236 0.103936 13.7308 0.311808C14.538 0.503691 15.1838 0.823494 15.6681 1.27122C16.1524 1.70295 16.4915 2.2786 16.6852 2.99816C16.8951 3.71771 17 4.59717 17 5.63653V13H13.3917Z" fill="white"/>
</g>
<defs>
<clipPath id="clip0_840_3046">
<rect width="17" height="13" fill="white"/>
</clipPath>
</defs>
</svg>
