<svg width="24" height="24" viewBox="0 0 24 24" fill="none" xmlns="http://www.w3.org/2000/svg">
<path d="M3 3L21 21" stroke="#16E6EF" stroke-width="1.4" stroke-linecap="square"/>
<path d="M9.3851 5.70616C9.214 6.05284 9.35634 6.47258 9.70302 6.64367C10.0497 6.81476 10.4694 6.67242 10.6405 6.32575L9.3851 5.70616ZM11.9938 2.00195L12.6215 1.69216L11.9938 0.42025L11.3661 1.69216L11.9938 2.00195ZM15.0798 8.25495L14.4521 8.56475L14.615 8.89491L14.9794 8.94772L15.0798 8.25495ZM21.9798 9.25495L22.4681 9.75652L23.4857 8.76588L22.0802 8.56219L21.9798 9.25495ZM17.0705 13.0574C16.7935 13.3271 16.7876 13.7702 17.0572 14.0472C17.3269 14.3243 17.7701 14.3302 18.0471 14.0605L17.0705 13.0574ZM18.2607 17.4505C18.1953 17.0695 17.8334 16.8136 17.4524 16.879C17.0714 16.9444 16.8155 17.3063 16.8809 17.6874L18.2607 17.4505ZM18.1588 20.995L17.8325 21.6142L19.089 22.2764L18.8487 20.8765L18.1588 20.995ZM12.0008 17.75L12.3271 17.1307L12.0012 16.9589L11.6751 17.1304L12.0008 17.75ZM5.82881 20.995L5.13889 20.8766L4.89907 22.2746L6.15457 21.6145L5.82881 20.995ZM7.00781 14.122L7.69774 14.2403L7.76001 13.8773L7.49607 13.6204L7.00781 14.122ZM2.00781 9.25495L1.90741 8.56219L0.501836 8.76591L1.51955 9.75655L2.00781 9.25495ZM8.43522 9.03071C8.81782 8.97526 9.08303 8.62015 9.02757 8.23755C8.97212 7.85495 8.61701 7.58974 8.23441 7.64519L8.43522 9.03071ZM10.6405 6.32575L12.6215 2.31175L11.3661 1.69216L9.3851 5.70616L10.6405 6.32575ZM11.3661 2.31175L14.4521 8.56475L15.7075 7.94516L12.6215 1.69216L11.3661 2.31175ZM14.9794 8.94772L21.8794 9.94772L22.0802 8.56219L15.1802 7.56219L14.9794 8.94772ZM21.4915 8.75339L17.0705 13.0574L18.0471 14.0605L22.4681 9.75652L21.4915 8.75339ZM16.8809 17.6874L17.4689 21.1134L18.8487 20.8765L18.2607 17.4505L16.8809 17.6874ZM18.4851 20.3757L12.3271 17.1307L11.6745 18.3692L17.8325 21.6142L18.4851 20.3757ZM11.6751 17.1304L5.50306 20.3754L6.15457 21.6145L12.3266 18.3695L11.6751 17.1304ZM6.51874 21.1133L7.69774 14.2403L6.31789 14.0036L5.13889 20.8766L6.51874 21.1133ZM7.49607 13.6204L2.49607 8.75335L1.51955 9.75655L6.51955 14.6236L7.49607 13.6204ZM2.10822 9.94771L8.43522 9.03071L8.23441 7.64519L1.90741 8.56219L2.10822 9.94771Z" fill="#16E6EF"/>
</svg>
