<svg width="24" height="24" viewBox="0 0 24 24" fill="none" xmlns="http://www.w3.org/2000/svg">
<path d="M23.7666 8.19755L20.8229 9.31565C20.6991 9.36069 20.5791 9.2406 20.6316 9.11679L23.9129 1.15119C23.9616 1.03113 23.8454 0.907309 23.7254 0.952334L17.4891 3.13603C17.3691 3.1773 17.2716 3.2711 17.2228 3.39116L12.9965 14.0582C12.944 14.1933 13.0752 14.3284 13.2102 14.2796L15.8503 13.3116C15.9966 13.2591 16.1316 13.4166 16.0528 13.5555L12.1752 20.1403C12.0927 20.2829 11.8827 20.2829 11.8002 20.1403L7.9227 13.5517C7.84393 13.4166 7.9752 13.2553 8.1252 13.3078L10.7652 14.2758C10.9002 14.3246 11.0315 14.1896 10.979 14.0545L6.74893 3.39116C6.70016 3.2711 6.60643 3.18105 6.48266 3.13603L0.253829 0.952334C0.130077 0.911061 0.0175753 1.03113 0.0663261 1.15119L3.34387 9.11679C3.39262 9.23687 3.27262 9.36069 3.15262 9.31565L0.227578 8.19755C0.0775761 8.14127 -0.0574256 8.30259 0.0250755 8.4414L8.7327 22.8643C8.81893 23.0069 8.9727 23.0931 9.14147 23.0931H14.849C15.0141 23.0931 15.1716 23.0069 15.2578 22.8643L23.9804 8.4414C24.0516 8.30259 23.9166 8.14127 23.7666 8.19755Z" fill="url(#paint0_linear_986_3568)"/>
<defs>
<linearGradient id="paint0_linear_986_3568" x1="9.6861" y1="0.942871" x2="25.318" y2="5.19619" gradientUnits="userSpaceOnUse">
<stop stop-color="#7735E8"/>
<stop offset="1" stop-color="#C62CF1"/>
</linearGradient>
</defs>
</svg>
