<svg width="16" height="17" viewBox="0 0 16 17" fill="none" xmlns="http://www.w3.org/2000/svg">
<g clip-path="url(#clip0_847_6124)">
<path d="M1.33509 0.656578L0.635093 0.656573L0.635084 2.05657L1.33508 2.05658L1.33509 0.656578ZM14.6673 1.35666H15.3673V0.656665L14.6673 0.656661L14.6673 1.35666ZM14.6673 14.6896V15.3896H15.3673V14.6896H14.6673ZM1.33456 14.6896L0.634562 14.6896L0.634592 15.3896H1.33456V14.6896ZM2.03398 1.35642L2.03395 0.656415L0.633954 0.656476L0.633984 1.35648L2.03398 1.35642ZM1.33508 2.05658L14.6673 2.05666L14.6673 0.656661L1.33509 0.656578L1.33508 2.05658ZM13.9673 1.35666V14.6896H15.3673V1.35666H13.9673ZM14.6673 13.9896H1.33456V15.3896H14.6673V13.9896ZM2.03456 14.6895L2.03398 1.35642L0.633984 1.35648L0.634562 14.6896L2.03456 14.6895Z" fill="white"/>
<path d="M4.66602 1.35645V14.6898" stroke="white" stroke-width="1.4" stroke-linecap="round" stroke-linejoin="round"/>
<path d="M11.334 1.35645V14.6898" stroke="white" stroke-width="1.4" stroke-linecap="round" stroke-linejoin="round"/>
<path d="M1.33398 8.02295H14.6673" stroke="white" stroke-width="1.4" stroke-linecap="round" stroke-linejoin="round"/>
<path d="M1.33398 4.68945H4.66732" stroke="white" stroke-width="1.4" stroke-linecap="round" stroke-linejoin="round"/>
<path d="M1.33398 11.3564H4.66732" stroke="white" stroke-width="1.4" stroke-linecap="round" stroke-linejoin="round"/>
<path d="M11.334 11.3564H14.6673" stroke="white" stroke-width="1.4" stroke-linecap="round" stroke-linejoin="round"/>
<path d="M11.334 4.68945H14.6673" stroke="white" stroke-width="1.4" stroke-linecap="round" stroke-linejoin="round"/>
</g>
<defs>
<clipPath id="clip0_847_6124">
<rect width="16" height="16" fill="white" transform="translate(0 0.0229492)"/>
</clipPath>
</defs>
</svg>
