<svg width="20" height="20" viewBox="0 0 20 20" fill="none" xmlns="http://www.w3.org/2000/svg">
<path d="M2 2L18 18" stroke="white" stroke-width="1.4" stroke-linecap="square"/>
<path d="M13.1613 3.82798L13.6563 3.33301L12.6663 2.34306L12.1713 2.83803L13.1613 3.82798ZM9.28335 5.72603L8.78837 6.22101L9.77832 7.21096L10.2733 6.71598L9.28335 5.72603ZM7.10956 8.44147L7.77369 8.22025L7.33126 6.892L6.66713 7.11322L7.10956 8.44147ZM5.55501 8.22147L5.3338 7.55734L5.17694 7.60959L5.06004 7.72649L5.55501 8.22147ZM4.22168 9.5548L3.7267 9.05983L3.23173 9.5548L3.7267 10.0498L4.22168 9.5548ZM10.4439 15.777L9.94893 16.272L10.4439 16.767L10.9389 16.272L10.4439 15.777ZM11.7772 14.4437L12.2722 14.9387L12.389 14.8218L12.4413 14.6651L11.7772 14.4437ZM12.8857 13.3321L13.1071 12.668L11.779 12.2252L11.5576 12.8893L12.8857 13.3321ZM13.2823 9.72789L12.7874 10.2229L13.7775 11.2127L14.2724 10.7177L13.2823 9.72789ZM17.1613 7.82791L17.6562 7.33286L16.6661 6.34306L16.1712 6.83811L17.1613 7.82791ZM12.1713 2.83803L9.28335 5.72603L10.2733 6.71598L13.1613 3.82798L12.1713 2.83803ZM6.66713 7.11322L5.3338 7.55734L5.77623 8.88559L7.10956 8.44147L6.66713 7.11322ZM5.06004 7.72649L3.7267 9.05983L4.71665 10.0498L6.04999 8.71644L5.06004 7.72649ZM3.7267 10.0498L9.94893 16.272L10.9389 15.282L4.71665 9.05983L3.7267 10.0498ZM10.9389 16.272L12.2722 14.9387L11.2823 13.9487L9.94893 15.282L10.9389 16.272ZM12.4413 14.6651L12.8857 13.3321L11.5576 12.8893L11.1132 14.2223L12.4413 14.6651ZM14.2724 10.7177L17.1613 7.82791L16.1712 6.83811L13.2823 9.72789L14.2724 10.7177Z" fill="white"/>
<path d="M7 13L3 17" stroke="white" stroke-width="1.4" stroke-linecap="square"/>
<path d="M13 2L18 7" stroke="white" stroke-width="1.4" stroke-linecap="square"/>
</svg>
